<?xml version="1.0" encoding="UTF-8" standalone="no"?><svg version="1.1" xmlns="http://www.w3.org/2000/svg" xmlns:xlink="http://www.w3.org/1999/xlink" x="0px" y="0px" width="170px" height="170px" viewBox="0 0 200 200" enable-background="new 0 0 200 200" xml:space="preserve" p-id="645"> <g p-id="646"> <path fill="#EEEEEE" d="M18.224,35.559c0,0,0.38-0.042,0.592,0.211s0.465,3.804,1.395,4.776s4.692,0.423,4.692,1.691 c0,1.014-3.496,1.124-4.68,2.096c-1.184,0.972-0.507,5.072-1.957,4.921c-1.135-0.119-0.338-3.381-1.733-4.692 s-4.776-1.057-4.776-2.24s3.466-0.465,4.65-1.818C17.59,39.152,17.083,35.559,18.224,35.559z" p-id="647"> </path> <path fill="#B1AFAE" d="M7.726,77.11c0,0,0.23-0.026,0.357,0.128c0.128,0.153,0.281,2.296,0.842,2.883s2.832,0.255,2.832,1.02 c0,0.612-2.11,0.678-2.824,1.265c-0.714,0.587-0.306,3.061-1.181,2.97c-0.685-0.072-0.204-2.041-1.046-2.832 c-0.842-0.791-2.883-0.638-2.883-1.352s2.092-0.281,2.806-1.097C7.343,79.279,7.037,77.11,7.726,77.11z" p-id="648"></path> <path fill="#EEEEEE" d="M190.447,56.933c0,0,0.261-0.029,0.406,0.145s0.319,2.608,0.956,3.274c0.637,0.666,3.216,0.29,3.216,1.159 c0,0.695-2.396,0.77-3.208,1.437c-0.811,0.666-0.348,3.477-1.341,3.373c-0.778-0.081-0.232-2.318-1.188-3.216 c-0.956-0.898-3.274-0.724-3.274-1.536s2.376-0.319,3.187-1.246C190.013,59.396,189.665,56.933,190.447,56.933z" p-id="649"></path> <path fill="#B1AFAE" d="M154.66,25.617c0,0,0.261-0.029,0.406,0.145c0.145,0.174,0.319,2.608,0.956,3.274 c0.637,0.666,3.216,0.29,3.216,1.159c0,0.695-2.396,0.77-3.208,1.437c-0.811,0.666-0.348,3.477-1.341,3.373 c-0.778-0.081-0.232-2.318-1.188-3.216c-0.956-0.898-3.274-0.724-3.274-1.536s2.376-0.319,3.187-1.246 C154.226,28.08,153.878,25.617,154.66,25.617z" p-id="650"></path> <circle fill="#EEEEEE" cx="56.234" cy="19.989" r="3.79" p-id="651"></circle> <circle fill="#EEEEEE" cx="178.362" cy="75.509" r="2.376" p-id="652"></circle> </g> <circle fill="#EEEEEE" cx="95.662" cy="104.843" r="77.333" p-id="653"></circle> <path fill="#FDFDFD" d="M145.856,131.98c-0.023,3.196-2.633,5.769-5.829,5.746l-89.136-0.146c-3.196-0.023-5.769-2.633-5.746-5.829 l0.431-56.782c0.023-3.196,2.633-5.769,5.829-5.746l72.81,0.029c5.893,5.294,13.625,12.765,21.971,19.869L145.856,131.98z" p-id="654" data-spm-anchor-id="a313x.7781069.1998910419.i1"></path><path fill="#D8D8D8" d="M146.469,87.616c-0.026,1.112-0.949,1.992-2.061,1.966l-19.059-0.448c-1.112-0.026-1.992-0.949-1.966-2.061 l0.381-16.217c0.026-1.112,0.949-1.992,2.061-1.966L146.469,87.616z" p-id="655"></path><circle fill="#EEEEEE" cx="117.299" cy="128.428" r="18.247" p-id="656"></circle><path fill="url(#SVGID_1_)" d="M108.588,138.199" p-id="663"></path><path fill="#D8D8D8" d="M112.247,85.099c0,1.057-0.857,1.913-1.913,1.913H59.158c-1.057,0-1.913-0.857-1.913-1.913l0,0 c0-1.057,0.857-1.913,1.913-1.913h51.175C111.39,83.186,112.247,84.042,112.247,85.099L112.247,85.099z" p-id="680"></path><path fill="#D8D8D8" d="M83.201,98.717c0,1.057-0.857,1.913-1.913,1.913H59.158c-1.057,0-1.913-0.857-1.913-1.913l0,0 c0-1.057,0.857-1.913,1.913-1.913h22.129C82.344,96.804,83.201,97.66,83.201,98.717L83.201,98.717z" p-id="681"></path><path fill="#D8D8D8" d="M83.201,112.335c0,1.057-0.857,1.913-1.913,1.913H59.158c-1.057,0-1.913-0.857-1.913-1.913l0,0 c0-1.057,0.857-1.913,1.913-1.913h22.129C82.344,110.422,83.201,111.278,83.201,112.335L83.201,112.335z" p-id="682"></path><path fill="#D8D8D8" d="M141.451,148.653c-0.669-0.798-1.858-0.902-2.656-0.234l-0.003,0.003l-2.983-3.559 c3.835-4.361,6.162-10.08,6.162-16.344c0-13.675-11.086-24.76-24.76-24.76c-13.675,0-24.76,11.086-24.76,24.76 c0,13.675,11.086,24.76,24.76,24.76c5.177,0,9.983-1.59,13.957-4.307l2.876,3.43l-0.003,0.003c-0.798,0.669-0.902,1.858-0.234,2.656 l9.153,10.918c2.63-2.047,5.132-4.249,7.475-6.612L141.451,148.653z M117.149,146.768c-10.078,0-18.247-8.17-18.247-18.248 c0-10.078,8.17-18.247,18.247-18.247c10.078,0,18.248,8.17,18.248,18.247C135.397,138.598,127.227,146.768,117.149,146.768z" p-id="683"></path></svg>